<svg xmlns="http://www.w3.org/2000/svg" viewBox="0 0 500.91 500.91"><circle cx="250.46" cy="250.46" r="249.46" fill="#4f46e5" stroke="#fff" stroke-miterlimit="10" stroke-width="2"/><path d="M247.8,357.76c-14.8-4.8-27.3-8.9-27.9-9.1-1.9-.7-3.7,6.5-3.1,11.8,1.8,14.8,15.4,27.2,30.1,27.1,9.8,0,18.3-4.7,24.7-13.6C276.7,367,277.4,367.46,247.8,357.76Z" fill="#fff"/><path d="M351.5,198.86c0-27-17.7-54-41.6-63.3-4.8-1.9-4.9-2-5-6.6-.2-6.2-3-10.6-8.4-13.4-2.4-1.2-5.3-2.2-6.5-2.2-3.6.1-10.3,3.7-12.1,6.7-1,1.5-1.9,3-2,3.1s-3.7-.4-8-1.4c-16.2-3.6-35.1-.1-50,9.1-9.2,5.8-19.9,17.1-24.5,26-2.1,3.9-10.8,28.7-19.9,56.2-9,27.1-17.1,50.6-18.2,52.3-2.8,4.7-7.4,6.2-17.1,5.5-7.2-.6-8.6-.4-11.5,1.4-6.2,4-9.1,12.6-6.1,18.4,3.6,7,1,6,103.2,39.8,104.9,34.8,100.4,33.6,106.7,28.2,9.2-7.7,7.4-20-3.8-25.7-6.6-3.4-9.3-6.6-9.9-11.9-.5-3.8,1.8-11.4,15.6-53C349.7,216.16,351.5,209.76,351.5,198.86Z" fill="#fff"/></svg>