<?xml version="1.0" encoding="utf-8"?>
<!-- Generator: Adobe Illustrator 25.0.0, SVG Export Plug-In . SVG Version: 6.00 Build 0)  -->
<svg version="1.1" xmlns="http://www.w3.org/2000/svg" xmlns:xlink="http://www.w3.org/1999/xlink" x="0px" y="0px"
	 viewBox="0 0 1412.9 577" style="enable-background:new 0 0 1412.9 577;" xml:space="preserve">
<style type="text/css">
	.st0{fill:#4F46E5;}
	.st1{fill:#FFFFFF;}
	.st2{fill:#4F46E5;stroke:#FFFFFF;stroke-width:2;stroke-miterlimit:10;}
	.st3{fill:#0F172A;}
	.st4{font-family:'AdvertisersGothic';}
	.st5{font-size:261.6411px;}
</style>
<g id="New_Layer">
	<g>
		<circle class="st0" cx="-1254.1" cy="-443" r="249.5"/>
		<g>
			<g>
				<path class="st1" d="M-1256.8-335.7c-14.8-4.8-27.3-8.9-27.9-9.1c-1.9-0.7-3.7,6.5-3.1,11.8c1.8,14.8,15.4,27.2,30.1,27.1
					c9.8,0,18.3-4.7,24.7-13.6C-1227.9-326.5-1227.2-326-1256.8-335.7z"/>
				<path class="st1" d="M-1153.1-494.6c0-27-17.7-54-41.6-63.3c-4.8-1.9-4.9-2-5-6.6c-0.2-6.2-3-10.6-8.4-13.4
					c-2.4-1.2-5.3-2.2-6.5-2.2c-3.6,0.1-10.3,3.7-12.1,6.7c-1,1.5-1.9,3-2,3.1c-0.1,0.2-3.7-0.4-8-1.4c-16.2-3.6-35.1-0.1-50,9.1
					c-9.2,5.8-19.9,17.1-24.5,26c-2.1,3.9-10.8,28.7-19.9,56.2c-9,27.1-17.1,50.6-18.2,52.3c-2.8,4.7-7.4,6.2-17.1,5.5
					c-7.2-0.6-8.6-0.4-11.5,1.4c-6.2,4-9.1,12.6-6.1,18.4c3.6,7,1,6,103.2,39.8c104.9,34.8,100.4,33.6,106.7,28.2
					c9.2-7.7,7.4-20-3.8-25.7c-6.6-3.4-9.3-6.6-9.9-11.9c-0.5-3.8,1.8-11.4,15.6-53C-1154.9-477.3-1153.1-483.7-1153.1-494.6z"/>
			</g>
		</g>
	</g>
	<text transform="matrix(1 0 0 1 -948.1308 -341.2757)" class="st3 st4" style="font-size:330.7019px;">PUSH MANAGER</text>
	<g>
		<g>
			<circle class="st2" cx="295.5" cy="294.3" r="249.5"/>
			<g>
				<g>
					<path class="st1" d="M292.8,401.6c-14.8-4.8-27.3-8.9-27.9-9.1c-1.9-0.7-3.7,6.5-3.1,11.8c1.8,14.8,15.4,27.2,30.1,27.1
						c9.8,0,18.3-4.7,24.7-13.6C321.7,410.8,322.4,411.3,292.8,401.6z"/>
					<path class="st1" d="M396.5,242.7c0-27-17.7-54-41.6-63.3c-4.8-1.9-4.9-2-5-6.6c-0.2-6.2-3-10.6-8.4-13.4
						c-2.4-1.2-5.3-2.2-6.5-2.2c-3.6,0.1-10.3,3.7-12.1,6.7c-1,1.5-1.9,3-2,3.1c-0.1,0.2-3.7-0.4-8-1.4c-16.2-3.6-35.1-0.1-50,9.1
						c-9.2,5.8-19.9,17.1-24.5,26c-2.1,3.9-10.8,28.7-19.9,56.2c-9,27.1-17.1,50.6-18.2,52.3c-2.8,4.7-7.4,6.2-17.1,5.5
						c-7.2-0.6-8.6-0.4-11.5,1.4c-6.2,4-9.1,12.6-6.1,18.4c3.6,7,1,6,103.2,39.8c104.9,34.8,100.4,33.6,106.7,28.2
						c9.2-7.7,7.4-20-3.8-25.7c-6.6-3.4-9.3-6.6-9.9-11.9c-0.5-3.8,1.8-11.4,15.6-53C394.7,260,396.5,253.6,396.5,242.7z"/>
				</g>
			</g>
		</g>
		<text transform="matrix(1 0 0 1 610.9067 320.0799)" class="st3 st4 st5">PUSH</text>
		<g>
			<g id="XMLID_1_">
				<g>
					<polygon class="st1" points="695.4,359.7 703.2,452.5 676.4,453.7 671.9,414.1 661.4,453.4 642.1,454.9 630.6,411.5 
						629.2,455.8 604.7,454.9 611.9,364.8 637.2,362.4 651.2,409.9 662.3,361.1 					"/>
					<polygon class="st3" points="699,366.9 707.9,366.6 716.3,465.2 683.6,466.5 682.4,456.2 682.4,454.4 704.3,453.4 696.3,359.2 
						696.3,358.7 696.2,356.9 698.1,356.8 					"/>
					<polygon class="st3" points="675.5,454.7 682.4,454.4 682.4,456.2 676.1,456.7 673.7,466 649.8,467.8 647,457.4 646.9,455.5 
						662.2,454.4 671.5,419.5 					"/>
					<polygon class="st3" points="639.2,359.3 642.4,369.7 649.2,369.1 653.9,384.8 659.9,358.2 696.2,356.9 696.3,358.7 
						661.5,360.1 651,406 637.9,361.3 611,363.9 609.2,363.7 609.3,362 					"/>
					<path class="st3" d="M601.1,458.2l7.7-96.6l30.7-2.9l3.2,10.4l6.8-0.6l4.3,14.3l5.7-25.1l39.1-1.5l0.9,10.1l8.9-0.3l8.4,99.6
						l-33.7,1.4l-1.2-10.3l-5.5,0.4l-2.5,9.3l-24.6,1.9l-2.7-10.4l-3.8,0.3l-0.3,11l-31.6-1.2l0.8-9.4L601.1,458.2z M601.7,457.7
						l10.6,0.4l-0.8,9.4l30.6,1.1l0.3-10.9l4.7-0.4l2.8,10.4l23.9-1.8l2.5-9.3l6.3-0.4l1.2,10.3l32.7-1.3l-8.4-98.6l-8.9,0.3
						l-0.9-10.1l-1.9,0.1l-36.3,1.4l-6,26.6l-4.8-15.8l-6.8,0.6l-3.2-10.4l-29.9,2.8l-0.1,1.7L601.7,457.7z"/>
					<path class="st3" d="M629.7,456.4l-25.5-1l7.3-91.1l26.1-2.5l13.6,46.1l10.8-47.4l33.9-1.4l8,93.7l-27.9,1.3l-4.2-37.4
						l-9.9,37.1l-20.1,1.5L631,415L629.7,456.4z M611.9,364.8l-7.2,90.1l24.5,0.9l1.4-44.3l11.5,43.3l19.4-1.4l10.5-39.3l4.5,39.6
						l26.9-1.2l-7.9-92.7l-33.1,1.3l-11.1,48.9l-14-47.5L611.9,364.8z"/>
					<path class="st3" d="M630.2,456.9l-26.6-1l0.1-0.5l7.3-91.5l26.9-2.5L651,406l10.5-45.9l34.8-1.4l0,0.5l8,94.2l-22,1l-6.9,0.3
						l-4-35.2l-9.3,34.9l-15.3,1.1l-5.6,0.4l-9.9-37.5L630.2,456.9z M611.5,364.3l-7.3,91.1l25.5,1L631,415l10.7,40.4l20.1-1.5
						l9.9-37.1l4.2,37.4l27.9-1.3l-8-93.7l-33.9,1.4L651.1,408l-13.6-46.1L611.5,364.3z"/>
					<polygon class="st3" points="603.6,455.9 630.2,456.9 631.4,418.4 641.3,455.9 646.9,455.5 647,457.4 642.4,457.8 642.1,468.7 
						611.5,467.6 612.3,458.1 601.7,457.7 609.2,363.7 611,363.9 603.7,455.3 					"/>
					<path class="st3" d="M601.1,458.2l10.6,0.4l-0.8,9.4l31.6,1.2l0.3-11l3.8-0.3l2.7,10.4l24.6-1.9l2.5-9.3l5.5-0.4l1.2,10.3
						l33.7-1.4l-8.4-99.6l-8.9,0.3l-0.9-10.1l-39.1,1.5l-5.7,25.1l-4.3-14.3l-6.8,0.6l-3.2-10.4l-30.7,2.9L601.1,458.2z
						 M600.6,458.2l7.8-97.1l31.5-2.9l3.2,10.4l6.8-0.6l3.9,12.9l5.3-23.7l39.9-1.5l0.9,10.1l8.9-0.3l8.5,100.6l-34.6,1.4l-1.2-10.3
						l-4.7,0.3l-2.5,9.3l-25.4,1.9l-2.8-10.4l-3,0.2l-0.3,11l-32.6-1.2l0.8-9.4l-10.6-0.4L600.6,458.2z"/>
				</g>
				<g>
				</g>
			</g>
		</g>
		<g>
			<g id="XMLID_2_">
				<g>
					<path class="st1" d="M788.7,362l31.4,86.6l-27.1,9.7l-7.2-22.2l-22.3-1.8l-5.3,22.1l-22.5-10l21.6-85.5L788.7,362z M780.7,413
						l-8.7-28.3l-4.8,27.7L780.7,413z"/>
					<polygon class="st3" points="794.3,368.6 800.6,368.8 833.8,460.1 801,471.8 797.2,459.8 791.1,462 786.7,448 788.5,447.5 
						792.4,459.5 821.4,449.1 789.5,361.3 789.4,361 756.5,359.7 756.6,357.8 790.8,359 					"/>
					<polygon class="st3" points="772.3,389 779.3,412 768.5,411.4 					"/>
					<path class="st3" d="M772.2,386.9l7.9,25.6l-12.2-0.6L772.2,386.9z M779.3,412l-7-22.9l-3.9,22.4L779.3,412z"/>
					<path class="st3" d="M772.2,386.9l-4.3,25l12.2,0.6L772.2,386.9z M767.3,412.4l4.8-27.7l8.7,28.3L767.3,412.4z"/>
					<path class="st3" d="M763.9,434.7l-5.4,22.3l-23.4-10.5l21.8-86.3l32.2,1.3l31.7,87.3l-28,10l-7.3-22.4L763.9,434.7z
						 M763.5,434.1l22.3,1.8l7.2,22.2l27.1-9.7L788.7,362l-31.4-1.2l-21.6,85.5l22.5,10L763.5,434.1z"/>
					<path class="st3" d="M763.9,434.7l21.5,1.8l7.3,22.4l28-10l-31.7-87.3l-32.2-1.3l-21.8,86.3l23.4,10.5L763.9,434.7z
						 M734.6,446.4l21.9-86.7l32.9,1.3l0.1,0.3l31.8,87.8l-29,10.4l-3.9-12l-3.4-10.6l-20.8-1.7l-5.4,22.5l-24.4-10.9L734.6,446.4z"
						/>
					<polygon class="st3" points="734.5,446.8 758.9,457.7 764.3,435.2 785.1,436.9 788.5,447.5 786.7,448 775.6,447.1 770.1,470.1 
						742,457.7 743.2,452.8 732.2,447.9 755,357.8 756.6,357.8 756.5,359.7 734.6,446.4 					"/>
					<path class="st3" d="M731.7,448.2l23-91l36.5,1.3l3.5,9.6l6.3,0.2l33.5,92l-33.8,12.1l-3.7-12l-6.1,2.2l-4.5-14.1l-10.3-0.9
						l-5.6,23.2l-29-12.8l1.2-4.9L731.7,448.2z M732.2,447.9l11,4.9l-1.2,4.9l28,12.4l5.6-23l11.1,0.9l4.5,14l6.1-2.2l3.7,12
						l32.8-11.7l-33.2-91.2l-6.3-0.2l-3.5-9.6l-34.2-1.2l-1.6-0.1L732.2,447.9z"/>
					<path class="st3" d="M742.1,453.4l-11-4.9l0.1-0.4l23.1-91.4l37.2,1.3l3.5,9.6l6.3,0.2l0.1,0.3l33.6,92.5l-34.7,12.4l-3.7-12
						l-6.1,2.2l-4.6-14.3l-9.5-0.8l-5.6,23.3l-29.9-13.2L742.1,453.4z M754.6,357.3l-23,91l11,4.9l-1.2,4.9l29,12.8l5.6-23.2
						l10.3,0.9l4.5,14.1l6.1-2.2l3.7,12l33.8-12.1l-33.5-92l-6.3-0.2l-3.5-9.6L754.6,357.3z"/>
				</g>
				<g>
				</g>
			</g>
		</g>
		<g>
			<g id="XMLID_3_">
				<g>
					<polygon class="st1" points="931.9,363.1 931.9,454 897.1,456 881.3,414.5 882.5,454.4 854.8,455.8 859.5,361 882.8,359.7 
						902.9,416.5 902,363.1 					"/>
					<polygon class="st3" points="899.3,360.2 934.7,360.2 934.7,370 944.7,370 944.7,466.6 905,468.9 901.2,458.8 901.1,456.8 
						932.9,455 932.9,362.1 901,362.1 899.3,362.1 					"/>
					<polygon class="st3" points="896.5,457.1 901.1,456.8 901.2,458.8 895.1,459.1 895.3,467 861.6,468.9 862.1,458.4 853.9,458.7 
						853.8,456.9 883.5,455.4 882.5,420.3 896.3,456.7 					"/>
					<path class="st3" d="M902.9,416.5l-20-56.7l-23.3,1.2l-4.7,94.9l27.6-1.4l-1.1-40l15.8,41.6l34.8-2v-90.9H902L902.9,416.5z
						 M883.2,359.2l19.1,54.2l-0.8-50.8h30.9v91.9l-35.6,2.1l-14.9-39.2l1.1,37.5l-28.7,1.5l4.7-95.9L883.2,359.2z"/>
					<path class="st3" d="M883,454.9l-1.1-37.5l14.9,39.2l35.6-2.1v-91.9h-30.9l0.8,50.8l-19.1-54.2l-24.2,1.3l-4.7,95.9L883,454.9z
						 M858.5,360l25-1.3l18.2,51.7l-0.7-48.2h31.9V455l-31.9,1.8l-4.6,0.3l-0.1-0.3l-13.9-36.4l1,35l-29.7,1.5l0-0.5L858.5,360z"/>
					<polygon class="st3" points="856.8,358.2 885,356.8 888.5,366.9 894.8,366.6 899.3,379.4 899.3,362.1 901,362.1 901.8,410.4 
						883.5,358.7 858.5,360 853.8,456.3 853.8,456.9 853.9,458.7 851.8,458.8 					"/>
					<path class="st3" d="M895.8,467.5l-34.7,2l0.5-10.5l-10.3,0.4l5-101.6l29-1.5l3.5,10.1l6.3-0.3l3.6,10.4v-16.8h36.4v9.8h10
						v97.6l-40.5,2.4l-3.8-10.1l-5.2,0.3L895.8,467.5z M885,356.8l-28.2,1.4l-4.9,100.6l2.1-0.1l8.2-0.3l-0.5,10.5l33.7-1.9
						l-0.2-7.8l6-0.3l3.8,10.1l39.7-2.3V370h-10v-9.8h-35.4v1.9v17.3l-4.5-12.8l-6.3,0.3L885,356.8z"/>
					<path class="st3" d="M861.1,469.4l34.7-2l-0.2-7.8l5.2-0.3l3.8,10.1l40.5-2.4v-97.6h-10v-9.8h-36.4v16.8l-3.6-10.4l-6.3,0.3
						l-3.5-10.1l-29,1.5l-5,101.6l10.3-0.4L861.1,469.4z M896.3,467.9l-35.8,2l0.5-10.5l-10.3,0.4l0-0.5l5-102l29.9-1.5l3.5,10.1
						l6.3-0.3l2.8,8v-14.3h37.4v9.8h10v98.5l-41.4,2.4l-3.8-10.1l-4.4,0.2L896.3,467.9z"/>
				</g>
				<g>
				</g>
			</g>
		</g>
		<g>
			<g id="XMLID_4_">
				<g>
					<path class="st1" d="M1019.1,362l31.4,86.6l-27.1,9.7l-7.2-22.2l-22.3-1.8l-5.3,22.1l-22.5-10l21.6-85.5L1019.1,362z
						 M1011.1,413l-8.7-28.3l-4.8,27.7L1011.1,413z"/>
					<polygon class="st3" points="1027.6,459.8 1021.6,462 1017.1,448 1018.9,447.5 1022.8,459.5 1051.8,449.1 1019.9,361.3 
						1019.8,361 986.9,359.7 987,357.8 1021.2,359 1024.7,368.6 1031,368.8 1064.2,460.1 1031.4,471.8 					"/>
					<polygon class="st3" points="1002.7,389 1009.8,412 998.9,411.4 					"/>
					<path class="st3" d="M1009.8,412l-7-22.9l-3.9,22.4L1009.8,412z M1002.6,386.9l7.8,25.6l-12.2-0.6L1002.6,386.9z"/>
					<path class="st3" d="M1010.4,412.5l-7.8-25.6l-4.3,25L1010.4,412.5z M1002.5,384.7l8.7,28.3l-13.4-0.6L1002.5,384.7z"/>
					<path class="st3" d="M965.5,446.5l21.8-86.3l32.2,1.3l31.7,87.3l-28,10l-7.3-22.4l-21.5-1.8l-5.4,22.3L965.5,446.5z
						 M966.1,446.3l22.5,10l5.3-22.1l22.3,1.8l7.2,22.2l27.1-9.7l-31.4-86.6l-31.4-1.2L966.1,446.3z"/>
					<path class="st3" d="M987.3,360.2l-21.8,86.3l23.4,10.5l5.4-22.3l21.5,1.8l7.3,22.4l28-10l-31.7-87.3L987.3,360.2z
						 M986.9,359.7l32.9,1.3l0.1,0.3l31.8,87.8l-29,10.4l-3.9-12l-3.4-10.6l-20.8-1.7l-5.4,22.5l-24.3-10.9l0.1-0.4L986.9,359.7z"/>
					<polygon class="st3" points="986.9,359.7 965,446.4 964.9,446.8 989.3,457.7 994.7,435.2 1015.5,436.9 1018.9,447.5 
						1017.1,448 1006,447.1 1000.5,470.1 972.5,457.7 973.6,452.8 962.7,447.9 985.4,357.8 987,357.8 					"/>
					<path class="st3" d="M985.4,357.8l-22.8,90.2l11,4.9l-1.2,4.9l28,12.4l5.5-23l11.1,0.9l4.5,14l6.1-2.2l3.7,12l32.8-11.7
						l-33.2-91.2l-6.3-0.2l-3.5-9.6l-34.2-1.2L985.4,357.8z M985,357.3l36.5,1.3l3.5,9.6l6.3,0.2l33.5,92l-33.8,12.1l-3.7-12
						l-6.1,2.2l-4.5-14.1l-10.3-0.9l-5.6,23.2L971.9,458l1.2-4.9l-11-4.9L985,357.3z"/>
					<path class="st3" d="M973.1,453.1l-1.2,4.9l28.9,12.8l5.6-23.2l10.3,0.9l4.5,14.1l6.1-2.2l3.7,12l33.8-12.1l-33.5-92l-6.3-0.2
						l-3.5-9.6l-36.5-1.3l-23,91L973.1,453.1z M984.6,356.7l37.2,1.3l3.5,9.6l6.3,0.2l0.1,0.3l33.6,92.5l-34.7,12.4l-3.7-12
						l-6.1,2.2l-4.6-14.3l-9.5-0.8l-5.6,23.3l-29.9-13.2l1.2-4.9l-11-4.9l0.1-0.4L984.6,356.7z"/>
				</g>
				<g>
				</g>
			</g>
		</g>
		<g>
			<g id="XMLID_5_">
				<g>
					<path class="st3" d="M1156.2,396.1l-22.4,1.1c3.1-1,7.1-1.5,12.1-1.5C1147.3,395.7,1150.7,395.9,1156.2,396.1z"/>
					<path class="st3" d="M1133.6,396.7c3.1-1,7.2-1.5,12.3-1.5c1.4,0,4.7,0.1,10.3,0.4v1v0l-25.7,1.2l-0.5,0L1133.6,396.7z
						 M1145.9,395.7c-5,0-9,0.5-12.1,1.5l22.4-1.1C1150.7,395.9,1147.3,395.7,1145.9,395.7z"/>
					<path class="st3" d="M1119.9,355.6c1.8-0.2,3.6-0.3,5.4-0.3c7.1,0,15.2,1.4,24,4.3l-0.5,7l0.4,0.1c3.2,0.7,6.5,1.6,9.9,2.7
						l-1.4,27.2h-1.6v-1c-5.5-0.3-8.9-0.4-10.3-0.4c-5,0-9.2,0.5-12.3,1.5l-3.7,1.2l0.5,0l0,0.3l-0.8,0.5c-4.9,3-7.4,8.3-7.3,15.8
						c0,2.2,0.1,3.9,0.3,5.2l0.1,0.4l0.4,0.1c1.8,0.3,4,0.5,6.6,0.5h0.5l0.3-20.8l1.9,0l-0.3,22.8c-8.8,0.2-14.8-1.4-17.9-4.8
						c-2.3-2.5-3.4-6.9-3.5-13.1c-0.1-6.4,1.7-11.4,5.1-14.9c4.1-4.2,10.9-6.3,20.1-6.3c1.7,0,3.6,0.1,5.7,0.2
						c3.8,0.3,3.9,0.3,3.9,0.3h0.5l1.3-22.9l-0.4-0.1c-8.1-2.6-15.5-3.9-22-3.9c-1.7,0-3.3,0.1-4.9,0.2L1119.9,355.6z"/>
					<path class="st3" d="M1129.7,420.1c-2.5,0-4.6-0.2-6.5-0.5c-0.2-1.3-0.3-3-0.3-5.2c-0.1-7.3,2.3-12.4,7.1-15.3L1129.7,420.1z
						 M1129.5,400c-4.1,2.9-6.1,7.7-6,14.4c0,1.9,0.1,3.5,0.2,4.8c1.6,0.3,3.4,0.4,5.5,0.4L1129.5,400z"/>
					<path class="st3" d="M1123.2,419.6c1.8,0.3,4,0.5,6.5,0.5l0.3-21c-4.8,2.9-7.1,8-7.1,15.3
						C1122.9,416.5,1123,418.3,1123.2,419.6z M1129.7,420.6c-2.5,0-4.7-0.2-6.6-0.5l-0.4-0.1l-0.1-0.4c-0.2-1.3-0.3-3.1-0.3-5.2
						c-0.1-7.4,2.4-12.8,7.3-15.8l0.8-0.5l0,1.6l-0.3,20.8H1129.7z"/>
					<path class="st1" d="M1094.9,373.6c6.8-10.5,16.9-15.8,30.1-15.8c6.3,0,13.5,1.3,21.3,3.8l-1.2,21.2c-0.6,0-1.7-0.1-3.4-0.3
						c-2.2-0.1-4.1-0.2-5.8-0.2c-9.5,0-16.5,2.2-20.9,6.6c-3.6,3.7-5.4,8.9-5.4,15.6c0.1,6.4,1.3,11.1,3.8,13.8
						c3.4,3.8,9.8,5.5,19.1,5.2l0.5,0l0.3-22.8l22.4-1.1v50c-13,2.1-22.8,3.2-29.2,3.2c-14.2,0-24.8-3.6-31.6-10.7
						c-6.8-7.1-10-18.1-9.4-32.5C1086.1,394.6,1089.3,382.5,1094.9,373.6z"/>
					<path class="st3" d="M1094.9,373.6c-5.7,8.9-8.9,21-9.5,36c-0.6,14.4,2.5,25.3,9.4,32.5c6.8,7.1,17.4,10.7,31.6,10.7
						c6.4,0,16.2-1.1,29.2-3.2v-50l-22.4,1.1l-0.3,22.8l-0.5,0c-9.3,0.3-15.8-1.4-19.1-5.2c-2.4-2.7-3.7-7.3-3.8-13.8
						c-0.1-6.7,1.8-11.9,5.4-15.6c4.3-4.4,11.3-6.6,20.9-6.6c1.7,0,3.6,0.1,5.8,0.2c1.7,0.1,2.8,0.2,3.4,0.3l1.2-21.2
						c-7.8-2.5-15-3.8-21.3-3.8C1111.9,357.9,1101.7,363.2,1094.9,373.6z M1126.4,453.2c-28.9,0-42.7-14.6-41.5-43.7
						c0.7-15.2,3.9-27.2,9.6-36.2c6.9-10.7,17.1-16,30.5-16c6.5,0,13.8,1.3,21.8,3.9l-1.3,22.1c-0.1,0-1.4-0.1-3.9-0.3
						c-2.2-0.1-4.1-0.2-5.8-0.2c-17.3,0-25.9,7.2-25.7,21.7c0.1,6.3,1.3,10.8,3.6,13.4c3.3,3.7,9.5,5.3,18.8,5l0.3-22.8l23.4-1.2
						V450C1142.9,452.1,1132.9,453.2,1126.4,453.2z"/>
					<path class="st3" d="M1084.9,409.6c-1.2,29.1,12.6,43.7,41.5,43.7c6.5,0,16.4-1.1,29.8-3.2v-50.9l-23.4,1.2l-0.3,22.8
						c-9.2,0.3-15.5-1.3-18.8-5c-2.4-2.6-3.6-7.1-3.6-13.4c-0.1-14.5,8.4-21.7,25.7-21.7c1.7,0,3.6,0.1,5.8,0.2
						c2.5,0.2,3.8,0.3,3.9,0.3l1.3-22.1c-8-2.6-15.3-3.9-21.8-3.9c-13.4,0-23.6,5.3-30.5,16C1088.8,382.3,1085.6,394.4,1084.9,409.6
						z M1094.1,442.7c-7-7.4-10.3-18.5-9.7-33.2c0.7-15.2,3.9-27.5,9.7-36.5c6.1-9.4,14.8-14.8,26-16c1.6-0.2,3.2-0.2,4.9-0.2
						c6.5,0,13.9,1.3,22,3.9l0.4,0.1l-1.3,22.9h-0.5c0,0-0.1,0-3.9-0.3c-2.1-0.1-4.1-0.2-5.7-0.2c-9.2,0-16,2.1-20.1,6.3
						c-3.4,3.5-5.2,8.5-5.1,14.9c0.1,6.2,1.2,10.6,3.5,13.1c3.1,3.5,9.1,5.1,17.9,4.8l0.3-22.8l24.3-1.2v51.9l-0.4,0.1
						c-13.3,2.2-23.3,3.2-29.8,3.2C1112,453.7,1101.1,450,1094.1,442.7z"/>
					<path class="st3" d="M1084.4,409.5c-0.6,14.7,2.6,25.9,9.7,33.2c7,7.3,17.9,11,32.3,11c6.5,0,16.6-1.1,29.8-3.2l0.4-0.1v-51.9
						l-24.3,1.2l-1.9,0l0-1.6l0-0.3l25.7-1.2v0h1.6l0.9-0.1v10.3l9.7-0.5v55.7c-5.4,0.8-13.4,1.9-23.8,3.3c-2.8,0.2-5.5,0.3-8,0.3
						c-18.4,0-31.3-5.5-38.2-16.4l-0.2-0.2c-11.3-7.2-16.7-20.5-15.8-39.4c0.7-15.5,4.1-28.1,10.2-37.3c6.4-9.7,15.5-15.3,27.3-16.5
						l0.2,1.5c-11.1,1.2-19.9,6.5-26,16C1088.3,382.1,1085.1,394.3,1084.4,409.5z"/>
					<path class="st3" d="M1098,449.3c-11.6-7.4-16.9-20.7-16.1-39.9c0.7-15.7,4.1-28.2,10.3-37.6c7.5-11.4,18.5-17.1,33.2-17.1
						c7.3,0,15.5,1.5,24.5,4.4l-0.5,7c3.3,0.7,6.7,1.7,10.3,2.8l-1.4,27l0.9-0.1v10.3l9.7-0.5v56.6c-5.4,0.8-13.5,2-24.3,3.3
						c-2.8,0.2-5.5,0.3-8,0.3C1117.9,466,1105,460.4,1098,449.3z M1082.4,409.5c-0.8,18.9,4.5,32.1,15.8,39.4l0.2,0.2
						c6.9,10.9,19.8,16.4,38.2,16.4c2.5,0,5.2-0.1,8-0.3c10.4-1.3,18.4-2.4,23.8-3.3v-55.7l-9.7,0.5v-10.3l-0.9,0.1l1.4-27.2
						c-3.4-1.1-6.7-2-9.9-2.7l-0.4-0.1l0.5-7c-8.8-2.8-16.9-4.3-24-4.3c-1.9,0-3.7,0.1-5.4,0.3c-11.8,1.3-20.9,6.8-27.3,16.5
						C1086.5,381.4,1083.1,393.9,1082.4,409.5z"/>
					<path class="st3" d="M1097.6,449.7c-11.6-7.5-17.1-21-16.2-40.2c0.7-15.7,4.2-28.5,10.4-37.8c7.5-11.5,18.8-17.3,33.6-17.3
						c7.3,0,15.7,1.5,24.7,4.4l0.4,0.1l-0.5,6.9c3.2,0.7,6.5,1.6,9.9,2.8l0.4,0.1l-1.4,26.8l0.9-0.1v10.3l9.7-0.5v57.6l-0.4,0.1
						c-5.4,0.9-13.6,2-24.3,3.3c-2.8,0.2-5.5,0.3-8.1,0.3C1117.8,466.5,1104.7,460.8,1097.6,449.7z M1081.9,409.5
						c-0.9,19.2,4.5,32.5,16.1,39.9c7.1,11.1,19.9,16.7,38.6,16.7c2.6,0,5.2-0.1,8-0.3c10.8-1.4,18.9-2.5,24.3-3.3v-56.6l-9.7,0.5
						v-10.3l-0.9,0.1l1.4-27c-3.6-1.2-7-2.1-10.3-2.8l0.5-7c-9-2.9-17.2-4.4-24.5-4.4c-14.7,0-25.7,5.7-33.2,17.1
						C1086,381.2,1082.6,393.8,1081.9,409.5z"/>
				</g>
				<g>
				</g>
			</g>
		</g>
		<g>
			<g id="XMLID_6_">
				<g>
					<polygon class="st3" points="1245.9,405.6 1244.5,430.8 1242.4,430.8 1240.6,430.8 1215.9,430.8 1216.4,418.4 1232.9,418.9 
						1233.6,405.1 1235.5,405.2 					"/>
					<polygon class="st1" points="1245.1,358.8 1243.5,383.2 1216.9,383.5 1216.3,398.2 1233,398.8 1231.9,417.9 1215.5,417.4 
						1214.8,431.8 1239.6,431.8 1240.5,456.3 1189.4,457 1196.3,358.8 					"/>
					<polygon class="st3" points="1242.4,430.8 1242.8,438.7 1252.2,438.7 1253.3,469 1196.2,469.8 1196.8,459.9 1188.3,459.9 
						1188.3,458.1 1241.6,457.3 1240.6,430.8 					"/>
					<path class="st3" d="M1215.9,417.9l-0.6,13.5h24.7l1,25.4l-52.2,0.8l7-99.2h49.8l-1.7,25.3l-26.6,0.4l-0.6,13.6l16.7,0.6
						l-1.1,20.1L1215.9,417.9z M1214.8,431.8l0.6-14.5l16.5,0.5l1-19.1l-16.7-0.6l0.6-14.6l26.6-0.4l1.6-24.3h-48.8l-6.9,98.2
						l51.1-0.8l-0.9-24.4H1214.8z"/>
					<path class="st3" d="M1195.4,357.8h50.8l-1.7,26.3l-26.6,0.4l-0.6,12.7l16.7,0.6l-0.4,7.3l-0.7,13.8l-16.5-0.5l-0.5,12.4h24.7
						l1,26.4l-53.3,0.8L1195.4,357.8z M1215.3,431.3l0.6-13.5l16.5,0.5l1.1-20.1l-16.7-0.6l0.6-13.6l26.6-0.4l1.7-25.3h-49.8
						l-7,99.2l52.2-0.8l-1-25.4H1215.3z"/>
					<polygon class="st3" points="1246.2,357.8 1195.4,357.8 1188.3,458.1 1188.3,459.9 1186.3,459.9 1193.6,355.9 1248.3,355.9 
						1247.6,365.7 1258.1,365.7 1256.1,395.9 1236.1,395.9 1235.5,405.2 1233.6,405.1 1234,397.8 1217.3,397.2 1217.9,384.5 
						1244.5,384.1 					"/>
					<path class="st3" d="M1196.8,459.9l-0.7,9.9l57.1-0.8l-1.1-30.3h-9.3l-0.4-7.9h2.1l1.4-25.2l-10.4-0.4l0.5-9.3h20l2-30.2h-10.5
						l0.7-9.8h-54.6l-7.3,104h2H1196.8z M1253.8,469.5l-58.2,0.8l0.7-9.9h-10.5l7.4-105h55.6l-0.7,9.8h10.5l-2.1,31.2h-20l-0.5,8.3
						l10.4,0.4l-1.5,26.2h-2.1l0.4,6.9h9.3L1253.8,469.5z"/>
					<path class="st3" d="M1254.3,470l-59.2,0.8l0.7-9.9h-10.5l0-0.5l7.4-105.5h56.6l-0.7,9.8h10.5l-2.1,32.2h-20l-0.4,7.3l10.4,0.4
						l-1.5,27.2h-2l0.3,5.9h9.3L1254.3,470z M1196.3,460.4l-0.7,9.9l58.2-0.8l-1.2-31.3h-9.3l-0.4-6.9h2.1l1.5-26.2l-10.4-0.4
						l0.5-8.3h20l2.1-31.2h-10.5l0.7-9.8h-55.6l-7.4,105H1196.3z"/>
				</g>
				<g>
				</g>
			</g>
		</g>
		<g>
			<g id="XMLID_7_">
				<g>
					<path class="st3" d="M1322.3,392.8c0,3.2-1.4,5.6-4.2,7.3c-2.3,1.3-6.3,2.3-11.7,3.1l1.6-22.7c4.3-0.1,7.5,0.4,9.4,1.5
						c2.5,1.4,4.1,4.3,4.8,8.5C1322.2,391.3,1322.3,392.1,1322.3,392.8z"/>
					<path class="st1" d="M1318.5,401c3.2-1.8,4.8-4.6,4.8-8.2c0-0.7-0.1-1.6-0.2-2.4v0c-0.7-4.5-2.5-7.6-5.2-9.2
						c-2.2-1.2-5.6-1.8-10.4-1.6l-0.4,0l-1.8,24.8l0.6-0.1C1311.7,403.5,1316,402.4,1318.5,401z M1325.1,418.4l24.7,31.1l-29.3,6.4
						l-17.2-31.7l-1,31.5l-26.3-1.7l6.2-91.1c2.3-0.3,9.3-1.2,20.9-2.8c7.9-1.1,14.1-1.7,18.4-1.7c8.4,0,14.8,1.9,18.9,5.6
						c4.9,4.4,7.8,12,8.7,22.7c0.1,1.6,0.2,3.1,0.2,4.5c0,7.8-2.2,13.7-6.4,17.7c-2.4,2.2-8.2,5.3-17.3,9.3L1325.1,418.4z"/>
					<path class="st3" d="M1318.3,400.5c-2.5,1.4-6.6,2.5-12.5,3.2l1.7-23.8c4.7-0.1,8,0.4,10.1,1.6c2.6,1.5,4.3,4.5,5,8.8
						c0.1,0.9,0.2,1.6,0.2,2.4C1322.8,396.2,1321.3,398.8,1318.3,400.5z M1306.4,403.2c5.4-0.8,9.3-1.8,11.7-3.1
						c2.9-1.7,4.2-4.1,4.2-7.3c0-0.7-0.1-1.5-0.2-2.3c-0.7-4.2-2.3-7-4.8-8.5c-1.9-1.1-5.1-1.6-9.4-1.5L1306.4,403.2z"/>
					<path class="st3" d="M1305.8,403.8c5.8-0.8,10-1.9,12.5-3.2c3-1.8,4.5-4.4,4.5-7.8c0-0.7-0.1-1.5-0.2-2.4
						c-0.7-4.4-2.4-7.3-5-8.8c-2.1-1.2-5.5-1.7-10.1-1.6L1305.8,403.8z M1305.3,404.3l1.8-24.8l0.4,0c4.8-0.1,8.2,0.4,10.4,1.6
						c2.7,1.6,4.5,4.7,5.2,9.2v0c0.1,0.9,0.2,1.7,0.2,2.4c0,3.6-1.6,6.3-4.8,8.2c-2.5,1.4-6.8,2.5-12.6,3.3L1305.3,404.3z"/>
					<path class="st3" d="M1281.8,362.4c1.8-0.2,8.9-1.2,21.3-2.9c7.9-1.1,14.1-1.7,18.5-1.7c8.6,0,15,1.9,19.3,5.8
						c5,4.5,8,12.2,8.8,23c0.1,1.6,0.2,3.1,0.2,4.5c0,8-2.2,14-6.6,18c-2.4,2.2-8.2,5.4-17.4,9.4l24.8,31.2l-30.5,6.6l-16.5-30.4
						l-1,30.2l-27.3-1.8L1281.8,362.4z M1303.2,360c-11.6,1.6-18.6,2.5-20.9,2.8l-6.2,91.1l26.3,1.7l1-31.5l17.2,31.7l29.3-6.4
						l-24.7-31.1l0.6-0.3c9.1-4,14.9-7.1,17.3-9.3c4.3-3.9,6.4-9.9,6.4-17.7c0-1.4-0.1-2.9-0.2-4.5c-0.8-10.7-3.8-18.3-8.7-22.7
						c-4.1-3.8-10.5-5.6-18.9-5.6C1317.2,358.3,1311.1,358.9,1303.2,360z"/>
					<path class="st3" d="M1281.7,361.9c1.8-0.2,8.9-1.2,21.3-2.8c7.9-1.1,14.2-1.7,18.5-1.7c8.7,0,15.3,2,19.6,5.9
						c5.1,4.6,8.2,12.4,9,23.4c0.1,1.6,0.2,3.1,0.2,4.6c0,8.1-2.3,14.3-6.8,18.4c-2.4,2.2-8,5.3-16.9,9.2l24.9,31.3l-29,6.3
						l-2.6,0.6l-15.8-29.1l-0.9,28.8l-28.3-1.8l6.3-93L1281.7,361.9z M1303.1,359.5c-12.5,1.7-19.6,2.6-21.3,2.9l-6.3,92l27.3,1.8
						l1-30.2l16.5,30.4l30.5-6.6l-24.8-31.2c9.2-4.1,15-7.2,17.4-9.4c4.4-4.1,6.6-10.1,6.6-18c0-1.4-0.1-2.9-0.2-4.5
						c-0.8-10.9-3.8-18.5-8.8-23c-4.3-3.9-10.7-5.8-19.3-5.8C1317.2,357.8,1311,358.4,1303.1,359.5z"/>
					<path class="st3" d="M1279.6,360c6.5-0.9,15.7-2.1,27.4-3.6c5.7-0.7,10.5-1.1,14.4-1.1c12.9,0,21.7,4.3,26.2,12.8l0.1,0.1
						l0.1,0.1c8.3,4.2,13.1,13.6,14.2,27.9c0.1,1.8,0.2,3.4,0.2,4.9c0,7.6-1.8,13.6-5.5,17.7c-2.9,3.3-8.4,6.7-16.4,10.3l-0.6,0.3
						l25.4,31.8l-36.3,7.8l-5.8-10.7l-0.4-1.8l29-6.3l-24.9-31.3c9-4,14.5-7,16.9-9.2c4.5-4.1,6.8-10.3,6.8-18.4
						c0-1.4-0.1-3-0.2-4.6c-0.9-10.9-3.9-18.8-9-23.4c-4.3-3.9-10.9-5.9-19.6-5.9c-4.4,0-10.6,0.6-18.5,1.7
						c-12.4,1.7-19.5,2.6-21.3,2.8l-0.4,0l-1.8-0.1L1279.6,360z"/>
					<path class="st3" d="M1315.5,469.1l-33.3-2.2l0.6-9.1l-10.4-0.7l6.7-97.5c6.6-0.9,15.9-2.1,27.8-3.6c5.7-0.7,10.5-1.1,14.4-1.1
						c13.2,0,22.1,4.4,26.7,13.1c8.5,4.3,13.3,13.7,14.4,28.3c0.1,1.8,0.2,3.4,0.2,4.9c0,7.8-1.9,13.8-5.6,18.1
						c-2.9,3.3-8.5,6.8-16.6,10.4l25.5,31.9l-37.5,8l-5.8-10.7l-4,0.9l-2.8-5.1L1315.5,469.1z M1273,456.7l10.4,0.7l-0.6,9.1
						l32.2,2.1l0.4-15.9l3.5,6.4l4-0.9l5.8,10.7l36.3-7.8l-25.4-31.8l0.6-0.3c8-3.5,13.5-7,16.4-10.3c3.6-4.1,5.5-10.1,5.5-17.7
						c0-1.5-0.1-3.1-0.2-4.9c-1.1-14.3-5.8-23.6-14.2-27.9l-0.1-0.1l-0.1-0.1c-4.5-8.5-13.4-12.8-26.2-12.8c-3.9,0-8.7,0.4-14.4,1.1
						c-11.6,1.5-20.8,2.7-27.4,3.6l-0.1,1.7L1273,456.7z"/>
					<path class="st3" d="M1316,469.7l-34.3-2.2l0.6-9.1l-10.4-0.7l6.7-98.4l0.4-0.1c6.6-0.9,15.9-2.1,27.8-3.6
						c5.7-0.7,10.6-1.1,14.5-1.1c13.2,0,22.3,4.4,27.1,13.2c8.5,4.4,13.4,14,14.6,28.6c0.1,1.8,0.2,3.4,0.2,4.9
						c0,7.9-1.9,14.1-5.7,18.4c-2.9,3.3-8.3,6.7-16.2,10.3l25.6,32l-38.7,8.3l-5.8-10.7l-4,0.9l-2-3.8L1316,469.7z M1282.9,457.8
						l-0.6,9.1l33.3,2.2l0.4-14.5l2.8,5.1l4-0.9l5.8,10.7l37.5-8l-25.5-31.9c8.1-3.6,13.6-7.1,16.6-10.4c3.7-4.2,5.6-10.3,5.6-18.1
						c0-1.5-0.1-3.1-0.2-4.9c-1.1-14.5-5.9-24-14.4-28.3c-4.6-8.7-13.5-13.1-26.7-13.1c-3.9,0-8.7,0.4-14.4,1.1
						c-11.9,1.5-21.2,2.7-27.8,3.6l-6.7,97.5L1282.9,457.8z"/>
					<polygon class="st3" points="1275,454.9 1303.3,456.7 1304.2,427.9 1320,457 1322.6,456.4 1323,458.2 1318.9,459.1 
						1315.5,452.7 1315.1,468.6 1282.8,466.5 1283.4,457.4 1273,456.7 1279.5,361.8 1281.3,361.9 					"/>
				</g>
				<g>
				</g>
			</g>
		</g>
	</g>
	<g>
		<circle class="st0" cx="-1254.1" cy="294.3" r="249.5"/>
		<g>
			<g>
				<path class="st1" d="M-1256.8,401.6c-14.8-4.8-27.3-8.9-27.9-9.1c-1.9-0.7-3.7,6.5-3.1,11.8c1.8,14.8,15.4,27.2,30.1,27.1
					c9.8,0,18.3-4.7,24.7-13.6C-1227.9,410.8-1227.2,411.3-1256.8,401.6z"/>
				<path class="st1" d="M-1153.1,242.7c0-27-17.7-54-41.6-63.3c-4.8-1.9-4.9-2-5-6.6c-0.2-6.2-3-10.6-8.4-13.4
					c-2.4-1.2-5.3-2.2-6.5-2.2c-3.6,0.1-10.3,3.7-12.1,6.7c-1,1.5-1.9,3-2,3.1c-0.1,0.2-3.7-0.4-8-1.4c-16.2-3.6-35.1-0.1-50,9.1
					c-9.2,5.8-19.9,17.1-24.5,26c-2.1,3.9-10.8,28.7-19.9,56.2c-9,27.1-17.1,50.6-18.2,52.3c-2.8,4.7-7.4,6.2-17.1,5.5
					c-7.2-0.6-8.6-0.4-11.5,1.4c-6.2,4-9.1,12.6-6.1,18.4c3.6,7,1,6,103.2,39.8c104.9,34.8,100.4,33.6,106.7,28.2
					c9.2-7.7,7.4-20-3.8-25.7c-6.6-3.4-9.3-6.6-9.9-11.9c-0.5-3.8,1.8-11.4,15.6-53C-1154.9,260-1153.1,253.6-1153.1,242.7z"/>
			</g>
		</g>
	</g>
	<text transform="matrix(1 0 0 1 -938.7127 320.0799)" class="st3 st4 st5">PUSH</text>
	
		<text transform="matrix(1 0 0 1 -956.0359 438.1113)" style="fill:#0F172A;stroke:#0F172A;stroke-miterlimit:10; font-family:'AgentRed'; font-size:98.1324px;">MANAGER</text>
</g>
<g id="MasterLayer_1">
</g>
</svg>
